<mxfile host="app.diagrams.net" modified="2022-01-23T10:04:07.410Z" agent="5.0 (Macintosh; Intel Mac OS X 10_15_7) AppleWebKit/537.36 (KHTML, like Gecko) Chrome/96.0.4664.110 YaBrowser/22.1.0.2500 Yowser/2.5 Safari/537.36" etag="Gz13LZOCjOYty5xDTChl" version="16.4.5" type="github">
  <diagram id="x__lZbmVAN-1nS7nkA_o" name="Page-1">
    <mxGraphModel dx="1298" dy="845" grid="1" gridSize="10" guides="1" tooltips="1" connect="1" arrows="1" fold="1" page="1" pageScale="1" pageWidth="827" pageHeight="1169" math="0" shadow="0">
      <root>
        <mxCell id="0" />
        <mxCell id="1" parent="0" />
        <mxCell id="LgWL-Y7TZ2J8o2i5pxcM-4" value="" style="edgeStyle=orthogonalEdgeStyle;rounded=0;orthogonalLoop=1;jettySize=auto;html=1;" edge="1" parent="1" source="LgWL-Y7TZ2J8o2i5pxcM-2" target="LgWL-Y7TZ2J8o2i5pxcM-3">
          <mxGeometry relative="1" as="geometry" />
        </mxCell>
        <mxCell id="LgWL-Y7TZ2J8o2i5pxcM-2" value="Начало" style="ellipse;whiteSpace=wrap;html=1;aspect=fixed;" vertex="1" parent="1">
          <mxGeometry x="374" y="10" width="80" height="80" as="geometry" />
        </mxCell>
        <mxCell id="LgWL-Y7TZ2J8o2i5pxcM-6" value="" style="edgeStyle=orthogonalEdgeStyle;rounded=0;orthogonalLoop=1;jettySize=auto;html=1;" edge="1" parent="1" source="LgWL-Y7TZ2J8o2i5pxcM-3" target="LgWL-Y7TZ2J8o2i5pxcM-5">
          <mxGeometry relative="1" as="geometry" />
        </mxCell>
        <mxCell id="LgWL-Y7TZ2J8o2i5pxcM-3" value="Объявление&amp;nbsp;&lt;br&gt;A, B, C" style="rounded=1;whiteSpace=wrap;html=1;" vertex="1" parent="1">
          <mxGeometry x="354" y="180" width="120" height="60" as="geometry" />
        </mxCell>
        <mxCell id="LgWL-Y7TZ2J8o2i5pxcM-8" value="" style="edgeStyle=orthogonalEdgeStyle;rounded=0;orthogonalLoop=1;jettySize=auto;html=1;" edge="1" parent="1" source="LgWL-Y7TZ2J8o2i5pxcM-5" target="LgWL-Y7TZ2J8o2i5pxcM-7">
          <mxGeometry relative="1" as="geometry" />
        </mxCell>
        <mxCell id="LgWL-Y7TZ2J8o2i5pxcM-10" value="" style="edgeStyle=orthogonalEdgeStyle;rounded=0;orthogonalLoop=1;jettySize=auto;html=1;" edge="1" parent="1" source="LgWL-Y7TZ2J8o2i5pxcM-5" target="LgWL-Y7TZ2J8o2i5pxcM-9">
          <mxGeometry relative="1" as="geometry" />
        </mxCell>
        <mxCell id="LgWL-Y7TZ2J8o2i5pxcM-5" value="A&amp;gt;B" style="rhombus;whiteSpace=wrap;html=1;rounded=1;" vertex="1" parent="1">
          <mxGeometry x="374" y="310" width="80" height="80" as="geometry" />
        </mxCell>
        <mxCell id="LgWL-Y7TZ2J8o2i5pxcM-14" value="" style="edgeStyle=orthogonalEdgeStyle;rounded=0;orthogonalLoop=1;jettySize=auto;html=1;" edge="1" parent="1" source="LgWL-Y7TZ2J8o2i5pxcM-7" target="LgWL-Y7TZ2J8o2i5pxcM-13">
          <mxGeometry relative="1" as="geometry" />
        </mxCell>
        <mxCell id="LgWL-Y7TZ2J8o2i5pxcM-7" value="Напечатать A" style="rounded=1;whiteSpace=wrap;html=1;" vertex="1" parent="1">
          <mxGeometry x="210" y="400" width="120" height="60" as="geometry" />
        </mxCell>
        <mxCell id="LgWL-Y7TZ2J8o2i5pxcM-20" value="" style="edgeStyle=orthogonalEdgeStyle;rounded=0;orthogonalLoop=1;jettySize=auto;html=1;" edge="1" parent="1" source="LgWL-Y7TZ2J8o2i5pxcM-9" target="LgWL-Y7TZ2J8o2i5pxcM-19">
          <mxGeometry relative="1" as="geometry" />
        </mxCell>
        <mxCell id="LgWL-Y7TZ2J8o2i5pxcM-9" value="Напечатать B" style="whiteSpace=wrap;html=1;rounded=1;" vertex="1" parent="1">
          <mxGeometry x="500" y="400" width="120" height="60" as="geometry" />
        </mxCell>
        <mxCell id="LgWL-Y7TZ2J8o2i5pxcM-11" value="True" style="text;html=1;align=center;verticalAlign=middle;resizable=0;points=[];autosize=1;strokeColor=none;fillColor=none;" vertex="1" parent="1">
          <mxGeometry x="314" y="320" width="40" height="20" as="geometry" />
        </mxCell>
        <mxCell id="LgWL-Y7TZ2J8o2i5pxcM-12" value="False" style="text;html=1;align=center;verticalAlign=middle;resizable=0;points=[];autosize=1;strokeColor=none;fillColor=none;" vertex="1" parent="1">
          <mxGeometry x="474" y="320" width="40" height="20" as="geometry" />
        </mxCell>
        <mxCell id="LgWL-Y7TZ2J8o2i5pxcM-16" value="" style="edgeStyle=orthogonalEdgeStyle;rounded=0;orthogonalLoop=1;jettySize=auto;html=1;" edge="1" parent="1" source="LgWL-Y7TZ2J8o2i5pxcM-13" target="LgWL-Y7TZ2J8o2i5pxcM-15">
          <mxGeometry relative="1" as="geometry" />
        </mxCell>
        <mxCell id="LgWL-Y7TZ2J8o2i5pxcM-18" value="" style="edgeStyle=orthogonalEdgeStyle;rounded=0;orthogonalLoop=1;jettySize=auto;html=1;" edge="1" parent="1" source="LgWL-Y7TZ2J8o2i5pxcM-13">
          <mxGeometry relative="1" as="geometry">
            <mxPoint x="360" y="570" as="targetPoint" />
          </mxGeometry>
        </mxCell>
        <mxCell id="LgWL-Y7TZ2J8o2i5pxcM-13" value="A&amp;gt;C" style="rhombus;whiteSpace=wrap;html=1;rounded=1;" vertex="1" parent="1">
          <mxGeometry x="230" y="480" width="80" height="80" as="geometry" />
        </mxCell>
        <mxCell id="LgWL-Y7TZ2J8o2i5pxcM-30" value="" style="edgeStyle=orthogonalEdgeStyle;rounded=0;orthogonalLoop=1;jettySize=auto;html=1;" edge="1" parent="1" source="LgWL-Y7TZ2J8o2i5pxcM-15">
          <mxGeometry relative="1" as="geometry">
            <mxPoint x="420" y="820" as="targetPoint" />
            <Array as="points">
              <mxPoint x="160" y="740" />
              <mxPoint x="420" y="740" />
            </Array>
          </mxGeometry>
        </mxCell>
        <mxCell id="LgWL-Y7TZ2J8o2i5pxcM-15" value="Напечатать A" style="whiteSpace=wrap;html=1;rounded=1;" vertex="1" parent="1">
          <mxGeometry x="100" y="570" width="120" height="60" as="geometry" />
        </mxCell>
        <mxCell id="LgWL-Y7TZ2J8o2i5pxcM-32" value="" style="edgeStyle=orthogonalEdgeStyle;rounded=0;orthogonalLoop=1;jettySize=auto;html=1;entryX=0.875;entryY=0.75;entryDx=0;entryDy=0;entryPerimeter=0;" edge="1" parent="1" source="LgWL-Y7TZ2J8o2i5pxcM-17" target="LgWL-Y7TZ2J8o2i5pxcM-35">
          <mxGeometry relative="1" as="geometry">
            <mxPoint x="380" y="880" as="targetPoint" />
            <Array as="points">
              <mxPoint x="420" y="600" />
              <mxPoint x="420" y="820" />
            </Array>
          </mxGeometry>
        </mxCell>
        <mxCell id="LgWL-Y7TZ2J8o2i5pxcM-17" value="Напечатать С" style="whiteSpace=wrap;html=1;rounded=1;" vertex="1" parent="1">
          <mxGeometry x="294" y="570" width="120" height="60" as="geometry" />
        </mxCell>
        <mxCell id="LgWL-Y7TZ2J8o2i5pxcM-22" value="" style="edgeStyle=orthogonalEdgeStyle;rounded=0;orthogonalLoop=1;jettySize=auto;html=1;" edge="1" parent="1" source="LgWL-Y7TZ2J8o2i5pxcM-19" target="LgWL-Y7TZ2J8o2i5pxcM-21">
          <mxGeometry relative="1" as="geometry" />
        </mxCell>
        <mxCell id="LgWL-Y7TZ2J8o2i5pxcM-24" value="" style="edgeStyle=orthogonalEdgeStyle;rounded=0;orthogonalLoop=1;jettySize=auto;html=1;" edge="1" parent="1" source="LgWL-Y7TZ2J8o2i5pxcM-19" target="LgWL-Y7TZ2J8o2i5pxcM-23">
          <mxGeometry relative="1" as="geometry" />
        </mxCell>
        <mxCell id="LgWL-Y7TZ2J8o2i5pxcM-19" value="B&amp;gt;C" style="rhombus;whiteSpace=wrap;html=1;rounded=1;" vertex="1" parent="1">
          <mxGeometry x="520" y="480" width="80" height="80" as="geometry" />
        </mxCell>
        <mxCell id="LgWL-Y7TZ2J8o2i5pxcM-34" style="edgeStyle=orthogonalEdgeStyle;rounded=0;orthogonalLoop=1;jettySize=auto;html=1;entryX=0.5;entryY=0;entryDx=0;entryDy=0;" edge="1" parent="1" source="LgWL-Y7TZ2J8o2i5pxcM-21">
          <mxGeometry relative="1" as="geometry">
            <mxPoint x="420" y="820" as="targetPoint" />
            <Array as="points">
              <mxPoint x="700" y="740" />
              <mxPoint x="420" y="740" />
              <mxPoint x="420" y="820" />
            </Array>
          </mxGeometry>
        </mxCell>
        <mxCell id="LgWL-Y7TZ2J8o2i5pxcM-21" value="Напечатать С" style="whiteSpace=wrap;html=1;rounded=1;" vertex="1" parent="1">
          <mxGeometry x="640" y="570" width="120" height="60" as="geometry" />
        </mxCell>
        <mxCell id="LgWL-Y7TZ2J8o2i5pxcM-33" style="edgeStyle=orthogonalEdgeStyle;rounded=0;orthogonalLoop=1;jettySize=auto;html=1;entryX=0.5;entryY=0;entryDx=0;entryDy=0;" edge="1" parent="1" source="LgWL-Y7TZ2J8o2i5pxcM-23">
          <mxGeometry relative="1" as="geometry">
            <mxPoint x="420" y="820" as="targetPoint" />
            <Array as="points">
              <mxPoint x="560" y="740" />
              <mxPoint x="420" y="740" />
              <mxPoint x="420" y="820" />
            </Array>
          </mxGeometry>
        </mxCell>
        <mxCell id="LgWL-Y7TZ2J8o2i5pxcM-23" value="Напечатать B" style="rounded=1;whiteSpace=wrap;html=1;" vertex="1" parent="1">
          <mxGeometry x="500" y="570" width="120" height="60" as="geometry" />
        </mxCell>
        <mxCell id="LgWL-Y7TZ2J8o2i5pxcM-25" value="True" style="text;html=1;align=center;verticalAlign=middle;resizable=0;points=[];autosize=1;strokeColor=none;fillColor=none;" vertex="1" parent="1">
          <mxGeometry x="514" y="550" width="40" height="20" as="geometry" />
        </mxCell>
        <mxCell id="LgWL-Y7TZ2J8o2i5pxcM-26" value="False" style="text;html=1;align=center;verticalAlign=middle;resizable=0;points=[];autosize=1;strokeColor=none;fillColor=none;" vertex="1" parent="1">
          <mxGeometry x="640" y="500" width="40" height="20" as="geometry" />
        </mxCell>
        <mxCell id="LgWL-Y7TZ2J8o2i5pxcM-27" value="True" style="text;html=1;align=center;verticalAlign=middle;resizable=0;points=[];autosize=1;strokeColor=none;fillColor=none;" vertex="1" parent="1">
          <mxGeometry x="180" y="500" width="40" height="20" as="geometry" />
        </mxCell>
        <mxCell id="LgWL-Y7TZ2J8o2i5pxcM-28" value="False" style="text;html=1;align=center;verticalAlign=middle;resizable=0;points=[];autosize=1;strokeColor=none;fillColor=none;" vertex="1" parent="1">
          <mxGeometry x="320" y="500" width="40" height="20" as="geometry" />
        </mxCell>
        <mxCell id="LgWL-Y7TZ2J8o2i5pxcM-35" value="Конец" style="ellipse;whiteSpace=wrap;html=1;aspect=fixed;" vertex="1" parent="1">
          <mxGeometry x="380" y="760" width="80" height="80" as="geometry" />
        </mxCell>
      </root>
    </mxGraphModel>
  </diagram>
</mxfile>
